<?xml version="1.0" standalone="no"?><!DOCTYPE svg PUBLIC "-//W3C//DTD SVG 1.1//EN" "http://www.w3.org/Graphics/SVG/1.1/DTD/svg11.dtd"><svg t="1634882434221" class="icon" viewBox="0 0 1024 1024" version="1.1" xmlns="http://www.w3.org/2000/svg" p-id="8820" xmlns:xlink="http://www.w3.org/1999/xlink" width="256" height="256"><defs><style type="text/css"></style></defs><path d="M600.822213 1024H358.674028l121.075123-200.638068z" fill="#5C586F" p-id="8821"></path><path d="M745.41431 1024H600.822213c-48.01674-62.527871-106.500121-146.386672-121.075122-200.636008-14.572942 54.251396-73.056322 138.108137-121.075123 200.636008h-144.592097c0-183.18474 120.343694-265.187155 120.343694-265.187155h290.64499c0.00206 0 120.345755 82.000354 120.345755 265.187155z" fill="#FF889E" p-id="8822"></path><path d="M853.301054 231.902004a116.760724 116.760724 0 0 1 15.353819 4.718229c55.137352 21.271179 97.858962-20.061746 123.4466-57.092635 11.470036-16.600338 2.451831-39.118036-17.117489-44.036121-25.911115-6.512805-48.538012-27.161755-63.681674-44.466737-9.33138-10.666495-17.175179-22.492974-24.417352-34.673835C855.15332 2.971042 785.611976-16.548829 729.897722 15.557795c-19.985513 11.517425-35.304306 28.340282-45.105448 47.775678z" fill="#E27858" p-id="8823"></path><path d="M832.922012 436.829746h72.973908c0-63.654889-14.031066-124.07707-39.155123-178.369674C799.123831 112.304161 651.070326 10.662374 479.749151 10.662374S160.37241 112.304161 92.757505 258.460072c-25.124056 54.292604-39.155123 114.714785-39.155123 178.369674h72.973908z" fill="#E7886E" p-id="8824"></path><path d="M187.146817 415.748121c0-166.091976 84.907525-312.332362 213.667799-397.750857C263.819074 43.762093 149.73064 135.306044 92.757505 258.462133c-25.124056 54.292604-39.155123 114.714785-39.155123 178.369674H187.637183a483.634994 483.634994 0 0 1-0.490366-21.083686z" fill="#E27858" p-id="8825"></path><path d="M832.930254 457.676491m-99.727711 0a99.72771 99.72771 0 1 0 199.455421 0 99.72771 99.72771 0 1 0-199.455421 0Z" fill="#FFBE9C" p-id="8826"></path><path d="M294.005441 939.323235c0-72.59274 32.976097-137.479726 84.759179-180.51245h-44.338994s-120.343694 82.002414-120.343694 265.187155h88.945835c-6.352097-26.267557-9.022326-54.815936-9.022326-84.674705z" fill="#FF748F" p-id="8827"></path><path d="M784.633304 258.460072h-116.173521l-49.955542-76.06033-49.955541 76.06033h-177.597038l-49.955541-76.06033-49.955542 76.06033H174.862938c-30.691155 52.353803-48.288708 113.297256-48.288709 178.369674 0 195.048306 158.124555 353.172861 353.172862 353.172862S832.922012 631.880113 832.922012 436.829746c0-65.072419-17.597553-126.015871-48.288708-178.369674z" fill="#FFD3BC" p-id="8828"></path><path d="M568.045972 802.721223a23.570543 23.570543 0 0 1-11.26194-27.184418l0.010302-0.035026c5.150905-17.826254-11.360837-34.337996-29.187091-29.187091l-0.035026 0.010302a23.570543 23.570543 0 0 1-27.182358-11.26194c-8.962575-16.252137-32.318841-16.252137-41.281416 0a23.570543 23.570543 0 0 1-27.182358 11.26194l-0.035027-0.010302c-17.826254-5.150905-34.337996 11.360837-29.18709 29.187091l0.010302 0.035026a23.570543 23.570543 0 0 1-11.26194 27.182358c-16.252137 8.962575-16.252137 32.318841 0 41.281416a23.570543 23.570543 0 0 1 11.26194 27.182359l-0.010302 0.035026c-5.150905 17.826254 11.360837 34.337996 29.18709 29.18709l0.035027-0.010301a23.570543 23.570543 0 0 1 27.182358 11.261939c8.962575 16.252137 32.318841 16.252137 41.281416 0a23.570543 23.570543 0 0 1 27.182358-11.261939l0.035026 0.010301c17.826254 5.150905 34.337996-11.360837 29.187091-29.18709l-0.010302-0.035026a23.570543 23.570543 0 0 1 11.26194-27.182359c16.252137-8.958455 16.252137-32.316781 0-41.279356z" fill="#FFFFFF" p-id="8829"></path><path d="M331.254728 757.333505c-88.886085-86.64029-144.107911-207.655662-144.107911-341.585384 0-55.116748 9.378769-108.037151 26.576612-157.285988H174.862938a351.021843 351.021843 0 0 0-39.490962 99.892539 99.560821 99.560821 0 0 0-8.805988-0.403831c-55.077602 0-99.72771 44.648048-99.72771 99.72771 0 55.077602 44.650109 99.72771 99.72771 99.727711 6.988748 0 13.804427-0.735549 20.387284-2.10363 31.869682 89.498012 98.81703 162.356539 184.301456 202.030873z" fill="#FFBE9C" p-id="8830"></path><path d="M179.48639 493.162109a80.928966 64.448129 0 1 0 161.857932 0 80.928966 64.448129 0 1 0-161.857932 0Z" fill="#FF9DB0" p-id="8831"></path><path d="M618.15192 493.162109a80.928966 64.448129 0 1 0 161.857931 0 80.928966 64.448129 0 1 0-161.857931 0Z" fill="#FF9DB0" p-id="8832"></path><path d="M307.581167 446.57526a15.452716 15.452716 0 0 1-15.452716-15.452717v-33.085296c0-8.53608 6.918696-15.452716 15.452716-15.452716s15.452716 6.916636 15.452716 15.452716v33.085296a15.452716 15.452716 0 0 1-15.452716 15.452717zM651.915074 446.57526a15.452716 15.452716 0 0 1-15.452716-15.452717v-33.085296c0-8.53608 6.918696-15.452716 15.452716-15.452716s15.452716 6.916636 15.452717 15.452716v33.085296a15.452716 15.452716 0 0 1-15.452717 15.452717zM479.749151 466.268201a75.66268 75.66268 0 0 1-57.041127-25.979106 15.452716 15.452716 0 0 1 23.300636-20.30487c8.517537 9.774358 20.815839 15.380604 33.740491 15.380604s25.222954-5.606245 33.742551-15.380604a15.452716 15.452716 0 1 1 23.298576 20.30487 75.668861 75.668861 0 0 1-57.041127 25.979106z" fill="#423E4F" p-id="8833"></path></svg>